<svg xmlns="http://www.w3.org/2000/svg" xmlns:se="http://svg-edit.googlecode.com" xmlns:xlink="http://www.w3.org/1999/xlink" xmlns:dc="http://purl.org/dc/elements/1.1/" xmlns:cc="http://creativecommons.org/ns#" xmlns:rdf="http://www.w3.org/1999/02/22-rdf-syntax-ns#" xmlns:inkscape="http://www.inkscape.org/namespaces/inkscape" width="777" height="480">                                    
<!-- Created with Vector Paint - http://www.vectorpaint.yaks.com/ https://chrome.google.com/webstore/detail/hnbpdiengicdefcjecjbnjnoifekhgdo -->                                    

                             
<g id="design-freepik">
<rect id="backgroundrect" width="100%" height="100%" x="0" y="0" fill="#FFFFFF" stroke="none"/>   
<rect fill="#ffffff" stroke="#222222" stroke-width="2" stroke-linejoin="round" stroke-dashoffset="" fill-rule="nonzero" id="svg_1" x="41.40983581542969" y="40.73770475387573" width="51" height="414" style="color: rgb(0, 0, 0);" class="" fill-opacity="1" transform=""/><path fill="#ffffff" fill-opacity="1" stroke="#222222" stroke-opacity="1" stroke-width="2" stroke-dasharray="none" stroke-linejoin="round" stroke-linecap="butt" stroke-dashoffset="" fill-rule="nonzero" opacity="1" marker-start="" marker-mid="" marker-end="" d="M 156.672 345.016 C 156.672 282.585 208.36 232.016 272.172 232.016 C 335.984 232.016 387.672 282.585 387.672 345.016 C 387.672 407.447 335.984 458.016 272.172 458.016 C 208.36 458.016 156.672 407.447 156.672 345.016 Z" id="svg_4" class="" transform=""/><path fill="#ffffff" fill-opacity="1" stroke="#222222" stroke-opacity="1" stroke-width="2" stroke-dasharray="none" stroke-linejoin="round" stroke-linecap="butt" stroke-dashoffset="" fill-rule="nonzero" opacity="1" marker-start="" marker-mid="" marker-end="" id="svg_16" d="M 323.626 49.8033 C 138.38 67.0164 80.1836 285.869 79.5082 285.246 C 80.1836 285.869 508.872 32.5902 323.626 49.8033 Z" style="color: rgb(0, 0, 0);" class="" transform="rotate(-20.7326 224.788 167.106)"/><path fill="#ffffff" fill-opacity="1" stroke="#222222" stroke-opacity="1" stroke-width="2" stroke-dasharray="none" stroke-linejoin="round" stroke-linecap="butt" stroke-dashoffset="" fill-rule="nonzero" opacity="1" marker-start="" marker-mid="" marker-end="" d="M 403.59 252.189 C 403.59 137.611 445.433 44.8033 497.09 44.8033 C 548.748 44.8033 590.59 137.611 590.59 252.189 C 590.59 366.766 548.748 459.574 497.09 459.574 C 445.433 459.574 403.59 366.766 403.59 252.189 Z" id="svg_18" class="" transform=""/><path fill="#ffffff" fill-opacity="1" stroke="#222222" stroke-opacity="1" stroke-width="2" stroke-dasharray="none" stroke-linejoin="round" stroke-linecap="butt" stroke-dashoffset="" fill-rule="nonzero" opacity="1" marker-start="" marker-mid="" marker-end="" d="M453,258.5 C453,169.82596685082873 475.8232044198895,98 504,98 C532.1767955801105,98 555,169.82596685082873 555,258.5 C555,347.17403314917124 532.1767955801105,419 504,419 C475.8232044198895,419 453,347.17403314917124 453,258.5 Z" id="svg_25"/><path fill="#ffffff" fill-opacity="1" stroke="#222222" stroke-opacity="1" stroke-width="2" stroke-dasharray="none" stroke-linejoin="round" stroke-linecap="butt" stroke-dashoffset="" fill-rule="nonzero" opacity="1" marker-start="" marker-mid="" marker-end="" d="M482,266 C482,219.59116022099448 492.51657458563534,182 505.5,182 C518.4834254143647,182 529,219.59116022099448 529,266 C529,312.4088397790055 518.4834254143647,350 505.5,350 C492.51657458563534,350 482,312.4088397790055 482,266 Z" id="svg_27"/><path fill="#ffffff" fill-opacity="1" stroke="#222222" stroke-opacity="1" stroke-width="2" stroke-dasharray="none" stroke-linejoin="round" stroke-linecap="butt" stroke-dashoffset="" fill-rule="nonzero" opacity="1" marker-start="" marker-mid="" marker-end="" d="M220,342 C220,306.64088397790056 247.0745856353591,278 280.5,278 C313.9254143646409,278 341,306.64088397790056 341,342 C341,377.35911602209944 313.9254143646409,406 280.5,406 C247.0745856353591,406 220,377.35911602209944 220,342 Z" id="svg_31"/><rect fill="#ffffff" stroke="#222222" stroke-width="2" stroke-linejoin="round" stroke-dashoffset="" fill-rule="nonzero" id="svg_33" x="652" y="40" width="47" height="326" style="color: rgb(0, 0, 0);"/><rect fill="#ffffff" stroke="#222222" stroke-width="2" stroke-linejoin="round" stroke-dashoffset="" fill-rule="nonzero" id="svg_35" x="631" y="389" width="90" height="64" style="color: rgb(0, 0, 0);"/><rect fill="#ffffff" stroke="#222222" stroke-width="2" stroke-linejoin="round" stroke-dashoffset="" fill-rule="nonzero" id="svg_37" x="646" y="403" width="64" height="36" style="color: rgb(0, 0, 0);"/><path fill="#ffffff" fill-opacity="1" stroke="#222222" stroke-opacity="1" stroke-width="2" stroke-dasharray="none" stroke-linejoin="round" stroke-linecap="butt" stroke-dashoffset="" fill-rule="nonzero" opacity="1" marker-start="" marker-mid="" marker-end="" d="M 52.6885 62.2377 C 52.6885 57.5416 56.4924 53.7377 61.1885 53.7377 C 65.8847 53.7377 69.6885 57.5416 69.6885 62.2377 C 69.6885 66.9338 65.8847 70.7377 61.1885 70.7377 C 56.4924 70.7377 52.6885 66.9338 52.6885 62.2377 Z" id="svg_39" class="" transform=""/><path fill="#ffffff" fill-opacity="1" stroke="#222222" stroke-opacity="1" stroke-width="2" stroke-dasharray="none" stroke-linejoin="round" stroke-linecap="butt" stroke-dashoffset="" fill-rule="nonzero" opacity="1" marker-start="" marker-mid="" marker-end="" d="M 63.6885 107.238 C 63.6885 101.437 67.7161 96.7377 72.6885 96.7377 C 77.6609 96.7377 81.6885 101.437 81.6885 107.238 C 81.6885 113.039 77.6609 117.738 72.6885 117.738 C 67.7161 117.738 63.6885 113.039 63.6885 107.238 Z" id="svg_41" class="" transform=""/><path fill="#ffffff" fill-opacity="1" stroke="#222222" stroke-opacity="1" stroke-width="2" stroke-dasharray="none" stroke-linejoin="round" stroke-linecap="butt" stroke-dashoffset="" fill-rule="nonzero" opacity="1" marker-start="" marker-mid="" marker-end="" d="M 58.6885 166.238 C 58.6885 160.437 63.1637 155.738 68.6885 155.738 C 74.2134 155.738 78.6885 160.437 78.6885 166.238 C 78.6885 172.039 74.2134 176.738 68.6885 176.738 C 63.1637 176.738 58.6885 172.039 58.6885 166.238 Z" id="svg_43" class="" transform=""/><path fill="#ffffff" fill-opacity="1" stroke="#222222" stroke-opacity="1" stroke-width="2" stroke-dasharray="none" stroke-linejoin="round" stroke-linecap="butt" stroke-dashoffset="" fill-rule="nonzero" opacity="1" marker-start="" marker-mid="" marker-end="" d="M 56.6885 256.738 C 56.6885 247.898 62.2824 240.738 69.1885 240.738 C 76.0946 240.738 81.6885 247.898 81.6885 256.738 C 81.6885 265.577 76.0946 272.738 69.1885 272.738 C 62.2824 272.738 56.6885 265.577 56.6885 256.738 Z" id="svg_45" class="" transform=""/><path fill="#ffffff" fill-opacity="1" stroke="#222222" stroke-opacity="1" stroke-width="2" stroke-dasharray="none" stroke-linejoin="round" stroke-linecap="butt" stroke-dashoffset="" fill-rule="nonzero" opacity="1" marker-start="" marker-mid="" marker-end="" d="M 61.6885 213.238 C 61.6885 209.647 64.3736 206.738 67.6885 206.738 C 71.0034 206.738 73.6885 209.647 73.6885 213.238 C 73.6885 216.829 71.0034 219.738 67.6885 219.738 C 64.3736 219.738 61.6885 216.829 61.6885 213.238 Z" id="svg_47" class="" transform=""/><path fill="#ffffff" fill-opacity="1" stroke="#222222" stroke-opacity="1" stroke-width="2" stroke-dasharray="none" stroke-linejoin="round" stroke-linecap="butt" stroke-dashoffset="" fill-rule="nonzero" opacity="1" marker-start="" marker-mid="" marker-end="" d="M 56.6885 308.738 C 56.6885 301.003 62.2824 294.738 69.1885 294.738 C 76.0946 294.738 81.6885 301.003 81.6885 308.738 C 81.6885 316.473 76.0946 322.738 69.1885 322.738 C 62.2824 322.738 56.6885 316.473 56.6885 308.738 Z" id="svg_49" class="" transform=""/><path fill="#ffffff" fill-opacity="1" stroke="#222222" stroke-opacity="1" stroke-width="2" stroke-dasharray="none" stroke-linejoin="round" stroke-linecap="butt" stroke-dashoffset="" fill-rule="nonzero" opacity="1" marker-start="" marker-mid="" marker-end="" d="M 53.6885 386.238 C 53.6885 378.779 59.9537 372.738 67.6885 372.738 C 75.4233 372.738 81.6885 378.779 81.6885 386.238 C 81.6885 393.696 75.4233 399.738 67.6885 399.738 C 59.9537 399.738 53.6885 393.696 53.6885 386.238 Z" id="svg_51" class="" transform=""/><path fill="#ffffff" fill-opacity="1" stroke="#222222" stroke-opacity="1" stroke-width="2" stroke-dasharray="none" stroke-linejoin="round" stroke-linecap="butt" stroke-dashoffset="" fill-rule="nonzero" opacity="1" marker-start="" marker-mid="" marker-end="" d="M 51.6885 423.238 C 51.6885 420.199 58.625 417.738 67.1885 417.738 C 75.7521 417.738 82.6885 420.199 82.6885 423.238 C 82.6885 426.276 75.7521 428.738 67.1885 428.738 C 58.625 428.738 51.6885 426.276 51.6885 423.238 Z" id="svg_53" class="" transform=""/>
</g></svg>