<svg xmlns="http://www.w3.org/2000/svg" xmlns:se="http://svg-edit.googlecode.com" xmlns:xlink="http://www.w3.org/1999/xlink" xmlns:dc="http://purl.org/dc/elements/1.1/" xmlns:cc="http://creativecommons.org/ns#" xmlns:rdf="http://www.w3.org/1999/02/22-rdf-syntax-ns#" xmlns:inkscape="http://www.inkscape.org/namespaces/inkscape" width="777" height="480">                                    <title>my vector image</title>                                    
<!-- Created with Vector Paint - http://www.vectorpaint.yaks.com/ https://chrome.google.com/webstore/detail/hnbpdiengicdefcjecjbnjnoifekhgdo -->                                    

<rect id="backgroundrect" width="100%" height="100%" x="0" y="0" fill="#FFFFFF" stroke="none"/>                                
<g id="design-freepik">
<rect fill="#ffffff" stroke="#222222" stroke-width="2" stroke-linejoin="round" stroke-dashoffset="" fill-rule="nonzero" id="svg_60" x="135" y="52" width="59" height="381" style="color: rgb(0, 0, 0);"/><path fill="#ffffff" fill-opacity="1" stroke="#222222" stroke-opacity="1" stroke-width="2" stroke-dasharray="none" stroke-linejoin="round" stroke-linecap="butt" stroke-dashoffset="" fill-rule="nonzero" opacity="1" marker-start="" marker-mid="" marker-end="" d="M258,333.5 C258,278.52762430939225 301.6325966850829,234 355.5,234 C409.3674033149171,234 453,278.52762430939225 453,333.5 C453,388.47237569060775 409.3674033149171,433 355.5,433 C301.6325966850829,433 258,388.47237569060775 258,333.5 Z" id="svg_62"/><path fill="#ffffff" fill-opacity="1" stroke="#222222" stroke-opacity="1" stroke-width="2" stroke-dasharray="none" stroke-linejoin="round" stroke-linecap="butt" stroke-dashoffset="" fill-rule="nonzero" opacity="1" marker-start="" marker-mid="" marker-end="" id="svg_64" d="M 217.889 280.131 C 176.905 121.115 349.036 15.377 348.361 14.7541 C 349.036 15.377 258.872 439.148 217.889 280.131 Z" style="color: rgb(0, 0, 0);" class="" transform=""/><path fill="#ffffff" fill-opacity="1" stroke="#222222" stroke-opacity="1" stroke-width="2" stroke-dasharray="none" stroke-linejoin="round" stroke-linecap="butt" stroke-dashoffset="" fill-rule="nonzero" opacity="1" marker-start="" marker-mid="" marker-end="" id="svg_66" d="M328.5442587928086,156.36064756829666 " style="color: rgb(0, 0, 0);"/><path fill="#ffffff" fill-opacity="1" stroke="#222222" stroke-opacity="1" stroke-width="2" stroke-dasharray="none" stroke-linejoin="round" stroke-linecap="butt" stroke-dashoffset="" fill-rule="nonzero" opacity="1" marker-start="" marker-mid="" marker-end="" d="M 445.557 247.238 C 445.557 143.094 492.323 58.7377 550.057 58.7377 C 607.792 58.7377 654.557 143.094 654.557 247.238 C 654.557 351.381 607.792 435.738 550.057 435.738 C 492.323 435.738 445.557 351.381 445.557 247.238 Z" id="svg_68" class="" transform=""/><path fill="#ffffff" fill-opacity="1" stroke="#222222" stroke-opacity="1" stroke-width="2" stroke-dasharray="none" stroke-linejoin="round" stroke-linecap="butt" stroke-dashoffset="" fill-rule="nonzero" opacity="1" marker-start="" marker-mid="" marker-end="" d="M549,241.5 C549,162.21823204419888 569.1381215469613,98 594,98 C618.8618784530387,98 639,162.21823204419888 639,241.5 C639,320.7817679558011 618.8618784530387,385 594,385 C569.1381215469613,385 549,320.7817679558011 549,241.5 Z" id="svg_70"/><path fill="#ffffff" fill-opacity="1" stroke="#222222" stroke-opacity="1" stroke-width="2" stroke-dasharray="none" stroke-linejoin="round" stroke-linecap="butt" stroke-dashoffset="" fill-rule="nonzero" opacity="1" marker-start="" marker-mid="" marker-end="" d="M683,396.5 C683,381.3066298342541 694.4116022099447,369 708.5,369 C722.5883977900553,369 734,381.3066298342541 734,396.5 C734,411.6933701657459 722.5883977900553,424 708.5,424 C694.4116022099447,424 683,411.6933701657459 683,396.5 Z" id="svg_72"/><path fill="#ffffff" fill-opacity="1" stroke="#222222" stroke-opacity="1" stroke-width="2" stroke-dasharray="none" stroke-linejoin="round" stroke-linecap="butt" stroke-dashoffset="" fill-rule="nonzero" opacity="1" marker-start="" marker-mid="" marker-end="" id="svg_74" d="M 697.111 286.191 C 665.249 92.3201 708.992 78.2793 708.547 77.8689 C 708.992 78.2793 728.973 480.062 697.111 286.191 Z" style="color: rgb(0, 0, 0);" class="" transform=""/><path fill="#ffffff" fill-opacity="1" stroke="#222222" stroke-opacity="1" stroke-width="2" stroke-dasharray="none" stroke-linejoin="round" stroke-linecap="butt" stroke-dashoffset="" fill-rule="nonzero" opacity="1" marker-start="" marker-mid="" marker-end="" id="svg_76" d="M705.5934302784945,212.09835117922415 " style="color: rgb(0, 0, 0);"/></g></svg>